<?xml version="1.0" encoding="UTF-8" standalone="no"?>
<!DOCTYPE svg PUBLIC "-//W3C//DTD SVG 1.1//EN"
 "http://www.w3.org/Graphics/SVG/1.1/DTD/svg11.dtd">
<!-- Generated by graphviz version 2.43.0 (0)
 -->
<!-- Title: %3 Pages: 1 -->
<svg width="1653pt" height="404pt"
 viewBox="0.00 0.00 1653.07 404.00" xmlns="http://www.w3.org/2000/svg" xmlns:xlink="http://www.w3.org/1999/xlink">
<g id="graph0" class="graph" transform="scale(1 1) rotate(0) translate(4 400)">
<title>%3</title>
<polygon fill="white" stroke="transparent" points="-4,4 -4,-400 1649.07,-400 1649.07,4 -4,4"/>
<!-- [root] azurerm_resource_group.rg (expand) -->
<g id="node1" class="node">
<title>[root] azurerm_resource_group.rg (expand)</title>
<polygon fill="none" stroke="black" points="944.29,-180 729.29,-180 729.29,-144 944.29,-144 944.29,-180"/>
<text text-anchor="middle" x="836.79" y="-158.3" font-family="Times,serif" font-size="14.00">azurerm_resource_group.rg</text>
</g>
<!-- [root] provider[&quot;registry.terraform.io/hashicorp/azurerm&quot;] -->
<g id="node3" class="node">
<title>[root] provider[&quot;registry.terraform.io/hashicorp/azurerm&quot;]</title>
<polygon fill="none" stroke="black" points="354.79,-108 0.21,-90 354.79,-72 709.38,-90 354.79,-108"/>
<text text-anchor="middle" x="354.79" y="-86.3" font-family="Times,serif" font-size="14.00">provider[&quot;registry.terraform.io/hashicorp/azurerm&quot;]</text>
</g>
<!-- [root] azurerm_resource_group.rg (expand)&#45;&gt;[root] provider[&quot;registry.terraform.io/hashicorp/azurerm&quot;] -->
<g id="edge1" class="edge">
<title>[root] azurerm_resource_group.rg (expand)&#45;&gt;[root] provider[&quot;registry.terraform.io/hashicorp/azurerm&quot;]</title>
<path fill="none" stroke="black" d="M729.22,-145.38C646.08,-133.3 531.99,-116.73 451.66,-105.07"/>
<polygon fill="black" stroke="black" points="451.94,-101.57 441.55,-103.6 450.94,-108.5 451.94,-101.57"/>
</g>
<!-- [root] var.location -->
<g id="node4" class="node">
<title>[root] var.location</title>
<polygon fill="none" stroke="black" points="820.29,-108 727.29,-108 727.29,-72 826.29,-72 826.29,-102 820.29,-108"/>
<polyline fill="none" stroke="black" points="820.29,-108 820.29,-102 "/>
<polyline fill="none" stroke="black" points="826.29,-102 820.29,-102 "/>
<text text-anchor="middle" x="776.79" y="-86.3" font-family="Times,serif" font-size="14.00">var.location</text>
</g>
<!-- [root] azurerm_resource_group.rg (expand)&#45;&gt;[root] var.location -->
<g id="edge2" class="edge">
<title>[root] azurerm_resource_group.rg (expand)&#45;&gt;[root] var.location</title>
<path fill="none" stroke="black" d="M821.96,-143.7C814.77,-135.3 806,-125.07 798.1,-115.86"/>
<polygon fill="black" stroke="black" points="800.62,-113.42 791.46,-108.1 795.31,-117.97 800.62,-113.42"/>
</g>
<!-- [root] var.rg_name -->
<g id="node5" class="node">
<title>[root] var.rg_name</title>
<polygon fill="none" stroke="black" points="942.79,-108 844.79,-108 844.79,-72 948.79,-72 948.79,-102 942.79,-108"/>
<polyline fill="none" stroke="black" points="942.79,-108 942.79,-102 "/>
<polyline fill="none" stroke="black" points="948.79,-102 942.79,-102 "/>
<text text-anchor="middle" x="896.79" y="-86.3" font-family="Times,serif" font-size="14.00">var.rg_name</text>
</g>
<!-- [root] azurerm_resource_group.rg (expand)&#45;&gt;[root] var.rg_name -->
<g id="edge3" class="edge">
<title>[root] azurerm_resource_group.rg (expand)&#45;&gt;[root] var.rg_name</title>
<path fill="none" stroke="black" d="M851.63,-143.7C858.82,-135.3 867.59,-125.07 875.48,-115.86"/>
<polygon fill="black" stroke="black" points="878.28,-117.97 882.13,-108.1 872.97,-113.42 878.28,-117.97"/>
</g>
<!-- [root] var.tags -->
<g id="node7" class="node">
<title>[root] var.tags</title>
<polygon fill="none" stroke="black" points="1034.79,-108 966.79,-108 966.79,-72 1040.79,-72 1040.79,-102 1034.79,-108"/>
<polyline fill="none" stroke="black" points="1034.79,-108 1034.79,-102 "/>
<polyline fill="none" stroke="black" points="1040.79,-102 1034.79,-102 "/>
<text text-anchor="middle" x="1003.79" y="-86.3" font-family="Times,serif" font-size="14.00">var.tags</text>
</g>
<!-- [root] azurerm_resource_group.rg (expand)&#45;&gt;[root] var.tags -->
<g id="edge4" class="edge">
<title>[root] azurerm_resource_group.rg (expand)&#45;&gt;[root] var.tags</title>
<path fill="none" stroke="black" d="M877.65,-143.88C901.79,-133.76 932.44,-120.91 957.48,-110.41"/>
<polygon fill="black" stroke="black" points="958.91,-113.61 966.78,-106.51 956.21,-107.15 958.91,-113.61"/>
</g>
<!-- [root] azurerm_virtual_network.vnet (expand) -->
<g id="node2" class="node">
<title>[root] azurerm_virtual_network.vnet (expand)</title>
<polygon fill="none" stroke="black" points="1170.79,-252 938.79,-252 938.79,-216 1170.79,-216 1170.79,-252"/>
<text text-anchor="middle" x="1054.79" y="-230.3" font-family="Times,serif" font-size="14.00">azurerm_virtual_network.vnet</text>
</g>
<!-- [root] azurerm_virtual_network.vnet (expand)&#45;&gt;[root] azurerm_resource_group.rg (expand) -->
<g id="edge5" class="edge">
<title>[root] azurerm_virtual_network.vnet (expand)&#45;&gt;[root] azurerm_resource_group.rg (expand)</title>
<path fill="none" stroke="black" d="M1001.74,-215.97C971.02,-206.1 932.16,-193.62 899.87,-183.25"/>
<polygon fill="black" stroke="black" points="900.67,-179.84 890.08,-180.11 898.53,-186.5 900.67,-179.84"/>
</g>
<!-- [root] var.vnet_address_space -->
<g id="node8" class="node">
<title>[root] var.vnet_address_space</title>
<polygon fill="none" stroke="black" points="1141.29,-180 962.29,-180 962.29,-144 1147.29,-144 1147.29,-174 1141.29,-180"/>
<polyline fill="none" stroke="black" points="1141.29,-180 1141.29,-174 "/>
<polyline fill="none" stroke="black" points="1147.29,-174 1141.29,-174 "/>
<text text-anchor="middle" x="1054.79" y="-158.3" font-family="Times,serif" font-size="14.00">var.vnet_address_space</text>
</g>
<!-- [root] azurerm_virtual_network.vnet (expand)&#45;&gt;[root] var.vnet_address_space -->
<g id="edge6" class="edge">
<title>[root] azurerm_virtual_network.vnet (expand)&#45;&gt;[root] var.vnet_address_space</title>
<path fill="none" stroke="black" d="M1054.79,-215.7C1054.79,-207.98 1054.79,-198.71 1054.79,-190.11"/>
<polygon fill="black" stroke="black" points="1058.29,-190.1 1054.79,-180.1 1051.29,-190.1 1058.29,-190.1"/>
</g>
<!-- [root] var.vnet_name -->
<g id="node9" class="node">
<title>[root] var.vnet_name</title>
<polygon fill="none" stroke="black" points="1278.79,-180 1164.79,-180 1164.79,-144 1284.79,-144 1284.79,-174 1278.79,-180"/>
<polyline fill="none" stroke="black" points="1278.79,-180 1278.79,-174 "/>
<polyline fill="none" stroke="black" points="1284.79,-174 1278.79,-174 "/>
<text text-anchor="middle" x="1224.79" y="-158.3" font-family="Times,serif" font-size="14.00">var.vnet_name</text>
</g>
<!-- [root] azurerm_virtual_network.vnet (expand)&#45;&gt;[root] var.vnet_name -->
<g id="edge7" class="edge">
<title>[root] azurerm_virtual_network.vnet (expand)&#45;&gt;[root] var.vnet_name</title>
<path fill="none" stroke="black" d="M1096.38,-215.88C1119.83,-206.22 1149.3,-194.09 1174.09,-183.88"/>
<polygon fill="black" stroke="black" points="1175.43,-187.11 1183.34,-180.07 1172.76,-180.64 1175.43,-187.11"/>
</g>
<!-- [root] var.subscription_id -->
<g id="node6" class="node">
<title>[root] var.subscription_id</title>
<polygon fill="none" stroke="black" points="424.79,-36 278.79,-36 278.79,0 430.79,0 430.79,-30 424.79,-36"/>
<polyline fill="none" stroke="black" points="424.79,-36 424.79,-30 "/>
<polyline fill="none" stroke="black" points="430.79,-30 424.79,-30 "/>
<text text-anchor="middle" x="354.79" y="-14.3" font-family="Times,serif" font-size="14.00">var.subscription_id</text>
</g>
<!-- [root] provider[&quot;registry.terraform.io/hashicorp/azurerm&quot;]&#45;&gt;[root] var.subscription_id -->
<g id="edge10" class="edge">
<title>[root] provider[&quot;registry.terraform.io/hashicorp/azurerm&quot;]&#45;&gt;[root] var.subscription_id</title>
<path fill="none" stroke="black" d="M354.79,-71.7C354.79,-63.98 354.79,-54.71 354.79,-46.11"/>
<polygon fill="black" stroke="black" points="358.29,-46.1 354.79,-36.1 351.29,-46.1 358.29,-46.1"/>
</g>
<!-- [root] meta.count&#45;boundary (EachMode fixup) -->
<g id="node10" class="node">
<title>[root] meta.count&#45;boundary (EachMode fixup)</title>
<ellipse fill="none" stroke="black" cx="777.79" cy="-306" rx="222.86" ry="18"/>
<text text-anchor="middle" x="777.79" y="-302.3" font-family="Times,serif" font-size="14.00">[root] meta.count&#45;boundary (EachMode fixup)</text>
</g>
<!-- [root] meta.count&#45;boundary (EachMode fixup)&#45;&gt;[root] azurerm_virtual_network.vnet (expand) -->
<g id="edge8" class="edge">
<title>[root] meta.count&#45;boundary (EachMode fixup)&#45;&gt;[root] azurerm_virtual_network.vnet (expand)</title>
<path fill="none" stroke="black" d="M842.39,-288.68C882.73,-278.48 934.9,-265.3 977.44,-254.55"/>
<polygon fill="black" stroke="black" points="978.36,-257.93 987.2,-252.08 976.65,-251.14 978.36,-257.93"/>
</g>
<!-- [root] provider[&quot;registry.terraform.io/hashicorp/azurerm&quot;] (close) -->
<g id="node11" class="node">
<title>[root] provider[&quot;registry.terraform.io/hashicorp/azurerm&quot;] (close)</title>
<ellipse fill="none" stroke="black" cx="1331.79" cy="-306" rx="313.04" ry="18"/>
<text text-anchor="middle" x="1331.79" y="-302.3" font-family="Times,serif" font-size="14.00">[root] provider[&quot;registry.terraform.io/hashicorp/azurerm&quot;] (close)</text>
</g>
<!-- [root] provider[&quot;registry.terraform.io/hashicorp/azurerm&quot;] (close)&#45;&gt;[root] azurerm_virtual_network.vnet (expand) -->
<g id="edge9" class="edge">
<title>[root] provider[&quot;registry.terraform.io/hashicorp/azurerm&quot;] (close)&#45;&gt;[root] azurerm_virtual_network.vnet (expand)</title>
<path fill="none" stroke="black" d="M1265.8,-288.32C1225.65,-278.18 1174.18,-265.17 1132.13,-254.54"/>
<polygon fill="black" stroke="black" points="1132.76,-251.09 1122.21,-252.04 1131.05,-257.88 1132.76,-251.09"/>
</g>
<!-- [root] root -->
<g id="node12" class="node">
<title>[root] root</title>
<ellipse fill="none" stroke="black" cx="1054.79" cy="-378" rx="58.49" ry="18"/>
<text text-anchor="middle" x="1054.79" y="-374.3" font-family="Times,serif" font-size="14.00">[root] root</text>
</g>
<!-- [root] root&#45;&gt;[root] meta.count&#45;boundary (EachMode fixup) -->
<g id="edge11" class="edge">
<title>[root] root&#45;&gt;[root] meta.count&#45;boundary (EachMode fixup)</title>
<path fill="none" stroke="black" d="M1011.21,-365.99C968.64,-355.23 903.03,-338.65 852.2,-325.8"/>
<polygon fill="black" stroke="black" points="852.8,-322.34 842.24,-323.29 851.08,-329.13 852.8,-322.34"/>
</g>
<!-- [root] root&#45;&gt;[root] provider[&quot;registry.terraform.io/hashicorp/azurerm&quot;] (close) -->
<g id="edge12" class="edge">
<title>[root] root&#45;&gt;[root] provider[&quot;registry.terraform.io/hashicorp/azurerm&quot;] (close)</title>
<path fill="none" stroke="black" d="M1098.38,-365.99C1140.59,-355.32 1205.46,-338.93 1256.11,-326.13"/>
<polygon fill="black" stroke="black" points="1257.2,-329.46 1266.03,-323.62 1255.48,-322.67 1257.2,-329.46"/>
</g>
</g>
</svg>
