<?xml version="1.0" encoding="UTF-8" standalone="no"?>
<!DOCTYPE svg PUBLIC "-//W3C//DTD SVG 1.1//EN"
 "http://www.w3.org/Graphics/SVG/1.1/DTD/svg11.dtd">
<!-- Generated by graphviz version 2.43.0 (0)
 -->
<!-- Title: %3 Pages: 1 -->
<svg width="1472pt" height="332pt"
 viewBox="0.00 0.00 1471.77 332.00" xmlns="http://www.w3.org/2000/svg" xmlns:xlink="http://www.w3.org/1999/xlink">
<g id="graph0" class="graph" transform="scale(1 1) rotate(0) translate(4 328)">
<title>%3</title>
<polygon fill="white" stroke="transparent" points="-4,4 -4,-328 1467.77,-328 1467.77,4 -4,4"/>
<!-- [root] azurerm_resource_group.rg (expand) -->
<g id="node1" class="node">
<title>[root] azurerm_resource_group.rg (expand)</title>
<polygon fill="none" stroke="black" points="1241,-180 1026,-180 1026,-144 1241,-144 1241,-180"/>
<text text-anchor="middle" x="1133.5" y="-158.3" font-family="Times,serif" font-size="14.00">azurerm_resource_group.rg</text>
</g>
<!-- [root] provider[&quot;registry.terraform.io/hashicorp/azurerm&quot;] -->
<g id="node3" class="node">
<title>[root] provider[&quot;registry.terraform.io/hashicorp/azurerm&quot;]</title>
<polygon fill="none" stroke="black" points="695.5,-108 340.91,-90 695.5,-72 1050.09,-90 695.5,-108"/>
<text text-anchor="middle" x="695.5" y="-86.3" font-family="Times,serif" font-size="14.00">provider[&quot;registry.terraform.io/hashicorp/azurerm&quot;]</text>
</g>
<!-- [root] azurerm_resource_group.rg (expand)&#45;&gt;[root] provider[&quot;registry.terraform.io/hashicorp/azurerm&quot;] -->
<g id="edge1" class="edge">
<title>[root] azurerm_resource_group.rg (expand)&#45;&gt;[root] provider[&quot;registry.terraform.io/hashicorp/azurerm&quot;]</title>
<path fill="none" stroke="black" d="M1026.91,-143.97C953.3,-132.2 856.44,-116.72 786.46,-105.54"/>
<polygon fill="black" stroke="black" points="786.77,-102.04 776.34,-103.92 785.66,-108.95 786.77,-102.04"/>
</g>
<!-- [root] var.location -->
<g id="node4" class="node">
<title>[root] var.location</title>
<polygon fill="none" stroke="black" points="1161,-108 1068,-108 1068,-72 1167,-72 1167,-102 1161,-108"/>
<polyline fill="none" stroke="black" points="1161,-108 1161,-102 "/>
<polyline fill="none" stroke="black" points="1167,-102 1161,-102 "/>
<text text-anchor="middle" x="1117.5" y="-86.3" font-family="Times,serif" font-size="14.00">var.location</text>
</g>
<!-- [root] azurerm_resource_group.rg (expand)&#45;&gt;[root] var.location -->
<g id="edge2" class="edge">
<title>[root] azurerm_resource_group.rg (expand)&#45;&gt;[root] var.location</title>
<path fill="none" stroke="black" d="M1129.54,-143.7C1127.78,-135.98 1125.66,-126.71 1123.7,-118.11"/>
<polygon fill="black" stroke="black" points="1127.05,-117.07 1121.41,-108.1 1120.23,-118.63 1127.05,-117.07"/>
</g>
<!-- [root] var.rg_name -->
<g id="node5" class="node">
<title>[root] var.rg_name</title>
<polygon fill="none" stroke="black" points="1283.5,-108 1185.5,-108 1185.5,-72 1289.5,-72 1289.5,-102 1283.5,-108"/>
<polyline fill="none" stroke="black" points="1283.5,-108 1283.5,-102 "/>
<polyline fill="none" stroke="black" points="1289.5,-102 1283.5,-102 "/>
<text text-anchor="middle" x="1237.5" y="-86.3" font-family="Times,serif" font-size="14.00">var.rg_name</text>
</g>
<!-- [root] azurerm_resource_group.rg (expand)&#45;&gt;[root] var.rg_name -->
<g id="edge3" class="edge">
<title>[root] azurerm_resource_group.rg (expand)&#45;&gt;[root] var.rg_name</title>
<path fill="none" stroke="black" d="M1158.94,-143.88C1172.29,-134.89 1188.82,-123.76 1203.28,-114.03"/>
<polygon fill="black" stroke="black" points="1205.62,-116.68 1211.96,-108.19 1201.71,-110.87 1205.62,-116.68"/>
</g>
<!-- [root] var.tags -->
<g id="node7" class="node">
<title>[root] var.tags</title>
<polygon fill="none" stroke="black" points="1375.5,-108 1307.5,-108 1307.5,-72 1381.5,-72 1381.5,-102 1375.5,-108"/>
<polyline fill="none" stroke="black" points="1375.5,-108 1375.5,-102 "/>
<polyline fill="none" stroke="black" points="1381.5,-102 1375.5,-102 "/>
<text text-anchor="middle" x="1344.5" y="-86.3" font-family="Times,serif" font-size="14.00">var.tags</text>
</g>
<!-- [root] azurerm_resource_group.rg (expand)&#45;&gt;[root] var.tags -->
<g id="edge4" class="edge">
<title>[root] azurerm_resource_group.rg (expand)&#45;&gt;[root] var.tags</title>
<path fill="none" stroke="black" d="M1188.7,-143.93C1218.59,-134.53 1256.34,-122.41 1297.9,-108.14"/>
<polygon fill="black" stroke="black" points="1299.08,-111.44 1307.39,-104.87 1296.8,-104.82 1299.08,-111.44"/>
</g>
<!-- [root] azurerm_virtual_network.vnet (expand) -->
<g id="node2" class="node">
<title>[root] azurerm_virtual_network.vnet (expand)</title>
<polygon fill="none" stroke="black" points="778.5,-180 546.5,-180 546.5,-144 778.5,-144 778.5,-180"/>
<text text-anchor="middle" x="662.5" y="-158.3" font-family="Times,serif" font-size="14.00">azurerm_virtual_network.vnet</text>
</g>
<!-- [root] azurerm_virtual_network.vnet (expand)&#45;&gt;[root] provider[&quot;registry.terraform.io/hashicorp/azurerm&quot;] -->
<g id="edge5" class="edge">
<title>[root] azurerm_virtual_network.vnet (expand)&#45;&gt;[root] provider[&quot;registry.terraform.io/hashicorp/azurerm&quot;]</title>
<path fill="none" stroke="black" d="M670.66,-143.7C674.47,-135.61 679.09,-125.81 683.3,-116.87"/>
<polygon fill="black" stroke="black" points="686.57,-118.16 687.66,-107.62 680.23,-115.18 686.57,-118.16"/>
</g>
<!-- [root] azurerm_virtual_network.vnet (expand)&#45;&gt;[root] var.location -->
<g id="edge6" class="edge">
<title>[root] azurerm_virtual_network.vnet (expand)&#45;&gt;[root] var.location</title>
<path fill="none" stroke="black" d="M778.82,-150.19C855.82,-141.92 959.06,-128.71 1058.08,-108.14"/>
<polygon fill="black" stroke="black" points="1058.89,-111.55 1067.95,-106.06 1057.45,-104.7 1058.89,-111.55"/>
</g>
<!-- [root] var.vnet_address_space -->
<g id="node8" class="node">
<title>[root] var.vnet_address_space</title>
<polygon fill="none" stroke="black" points="179,-108 0,-108 0,-72 185,-72 185,-102 179,-108"/>
<polyline fill="none" stroke="black" points="179,-108 179,-102 "/>
<polyline fill="none" stroke="black" points="185,-102 179,-102 "/>
<text text-anchor="middle" x="92.5" y="-86.3" font-family="Times,serif" font-size="14.00">var.vnet_address_space</text>
</g>
<!-- [root] azurerm_virtual_network.vnet (expand)&#45;&gt;[root] var.vnet_address_space -->
<g id="edge7" class="edge">
<title>[root] azurerm_virtual_network.vnet (expand)&#45;&gt;[root] var.vnet_address_space</title>
<path fill="none" stroke="black" d="M546.15,-149.62C453.62,-140.16 320.62,-125.64 195.37,-108.23"/>
<polygon fill="black" stroke="black" points="195.6,-104.72 185.21,-106.8 194.63,-111.66 195.6,-104.72"/>
</g>
<!-- [root] var.vnet_name -->
<g id="node9" class="node">
<title>[root] var.vnet_name</title>
<polygon fill="none" stroke="black" points="316.5,-108 202.5,-108 202.5,-72 322.5,-72 322.5,-102 316.5,-108"/>
<polyline fill="none" stroke="black" points="316.5,-108 316.5,-102 "/>
<polyline fill="none" stroke="black" points="322.5,-102 316.5,-102 "/>
<text text-anchor="middle" x="262.5" y="-86.3" font-family="Times,serif" font-size="14.00">var.vnet_name</text>
</g>
<!-- [root] azurerm_virtual_network.vnet (expand)&#45;&gt;[root] var.vnet_name -->
<g id="edge8" class="edge">
<title>[root] azurerm_virtual_network.vnet (expand)&#45;&gt;[root] var.vnet_name</title>
<path fill="none" stroke="black" d="M546.42,-144.82C485.35,-135.72 409.06,-123.46 332.47,-108.12"/>
<polygon fill="black" stroke="black" points="333.14,-104.68 322.64,-106.13 331.75,-111.54 333.14,-104.68"/>
</g>
<!-- [root] var.subscription_id -->
<g id="node6" class="node">
<title>[root] var.subscription_id</title>
<polygon fill="none" stroke="black" points="765.5,-36 619.5,-36 619.5,0 771.5,0 771.5,-30 765.5,-36"/>
<polyline fill="none" stroke="black" points="765.5,-36 765.5,-30 "/>
<polyline fill="none" stroke="black" points="771.5,-30 765.5,-30 "/>
<text text-anchor="middle" x="695.5" y="-14.3" font-family="Times,serif" font-size="14.00">var.subscription_id</text>
</g>
<!-- [root] provider[&quot;registry.terraform.io/hashicorp/azurerm&quot;]&#45;&gt;[root] var.subscription_id -->
<g id="edge13" class="edge">
<title>[root] provider[&quot;registry.terraform.io/hashicorp/azurerm&quot;]&#45;&gt;[root] var.subscription_id</title>
<path fill="none" stroke="black" d="M695.5,-71.7C695.5,-63.98 695.5,-54.71 695.5,-46.11"/>
<polygon fill="black" stroke="black" points="699,-46.1 695.5,-36.1 692,-46.1 699,-46.1"/>
</g>
<!-- [root] meta.count&#45;boundary (EachMode fixup) -->
<g id="node10" class="node">
<title>[root] meta.count&#45;boundary (EachMode fixup)</title>
<ellipse fill="none" stroke="black" cx="596.5" cy="-234" rx="222.86" ry="18"/>
<text text-anchor="middle" x="596.5" y="-230.3" font-family="Times,serif" font-size="14.00">[root] meta.count&#45;boundary (EachMode fixup)</text>
</g>
<!-- [root] meta.count&#45;boundary (EachMode fixup)&#45;&gt;[root] azurerm_resource_group.rg (expand) -->
<g id="edge9" class="edge">
<title>[root] meta.count&#45;boundary (EachMode fixup)&#45;&gt;[root] azurerm_resource_group.rg (expand)</title>
<path fill="none" stroke="black" d="M708.42,-218.41C798.34,-206.69 924.27,-190.27 1015.71,-178.35"/>
<polygon fill="black" stroke="black" points="1016.38,-181.8 1025.85,-177.03 1015.48,-174.86 1016.38,-181.8"/>
</g>
<!-- [root] meta.count&#45;boundary (EachMode fixup)&#45;&gt;[root] azurerm_virtual_network.vnet (expand) -->
<g id="edge10" class="edge">
<title>[root] meta.count&#45;boundary (EachMode fixup)&#45;&gt;[root] azurerm_virtual_network.vnet (expand)</title>
<path fill="none" stroke="black" d="M612.81,-215.7C620.81,-207.22 630.57,-196.86 639.32,-187.58"/>
<polygon fill="black" stroke="black" points="642.06,-189.78 646.37,-180.1 636.97,-184.98 642.06,-189.78"/>
</g>
<!-- [root] provider[&quot;registry.terraform.io/hashicorp/azurerm&quot;] (close) -->
<g id="node11" class="node">
<title>[root] provider[&quot;registry.terraform.io/hashicorp/azurerm&quot;] (close)</title>
<ellipse fill="none" stroke="black" cx="1150.5" cy="-234" rx="313.04" ry="18"/>
<text text-anchor="middle" x="1150.5" y="-230.3" font-family="Times,serif" font-size="14.00">[root] provider[&quot;registry.terraform.io/hashicorp/azurerm&quot;] (close)</text>
</g>
<!-- [root] provider[&quot;registry.terraform.io/hashicorp/azurerm&quot;] (close)&#45;&gt;[root] azurerm_resource_group.rg (expand) -->
<g id="edge11" class="edge">
<title>[root] provider[&quot;registry.terraform.io/hashicorp/azurerm&quot;] (close)&#45;&gt;[root] azurerm_resource_group.rg (expand)</title>
<path fill="none" stroke="black" d="M1146.3,-215.7C1144.4,-207.9 1142.12,-198.51 1140.02,-189.83"/>
<polygon fill="black" stroke="black" points="1143.42,-189 1137.65,-180.1 1136.61,-190.65 1143.42,-189"/>
</g>
<!-- [root] provider[&quot;registry.terraform.io/hashicorp/azurerm&quot;] (close)&#45;&gt;[root] azurerm_virtual_network.vnet (expand) -->
<g id="edge12" class="edge">
<title>[root] provider[&quot;registry.terraform.io/hashicorp/azurerm&quot;] (close)&#45;&gt;[root] azurerm_virtual_network.vnet (expand)</title>
<path fill="none" stroke="black" d="M1039.77,-217.12C965.22,-206.42 866.73,-192.29 789.07,-181.16"/>
<polygon fill="black" stroke="black" points="789.14,-177.63 778.74,-179.67 788.15,-184.56 789.14,-177.63"/>
</g>
<!-- [root] root -->
<g id="node12" class="node">
<title>[root] root</title>
<ellipse fill="none" stroke="black" cx="873.5" cy="-306" rx="58.49" ry="18"/>
<text text-anchor="middle" x="873.5" y="-302.3" font-family="Times,serif" font-size="14.00">[root] root</text>
</g>
<!-- [root] root&#45;&gt;[root] meta.count&#45;boundary (EachMode fixup) -->
<g id="edge14" class="edge">
<title>[root] root&#45;&gt;[root] meta.count&#45;boundary (EachMode fixup)</title>
<path fill="none" stroke="black" d="M829.91,-293.99C787.35,-283.23 721.74,-266.65 670.91,-253.8"/>
<polygon fill="black" stroke="black" points="671.5,-250.34 660.95,-251.29 669.79,-257.13 671.5,-250.34"/>
</g>
<!-- [root] root&#45;&gt;[root] provider[&quot;registry.terraform.io/hashicorp/azurerm&quot;] (close) -->
<g id="edge15" class="edge">
<title>[root] root&#45;&gt;[root] provider[&quot;registry.terraform.io/hashicorp/azurerm&quot;] (close)</title>
<path fill="none" stroke="black" d="M917.09,-293.99C959.29,-283.32 1024.16,-266.93 1074.81,-254.13"/>
<polygon fill="black" stroke="black" points="1075.9,-257.46 1084.74,-251.62 1074.19,-250.67 1075.9,-257.46"/>
</g>
</g>
</svg>
